<svg viewBox="0 0 260 260" xmlns="http://www.w3.org/2000/svg" xml:space="preserve" style="fill-rule:evenodd;clip-rule:evenodd;stroke-linejoin:round;stroke-miterlimit:1.41421"><g opacity=".12"><path d="M841 1317H596v-216h245v216Zm-239.346-210.21v204.42h233.692v-204.42H601.654Z" style="fill:#fff" transform="matrix(1.06122 0 0 1.03704 -632.49 -1123.78)"/><path style="fill:#fff" d="M665 1100h18v216h-18z" transform="translate(-588 -1078)"/><path style="fill:#fff" d="M701 1121h70v18h-70z" transform="translate(-589 -1079)"/><path style="fill:#fff" d="M701 1121h70v18h-70z" transform="translate(-589 -939)"/><path style="fill:#fff" d="M701 1121h70v18h-70z" transform="matrix(1.25714 0 0 1 -751.757 -1044)"/><path style="fill:#fff" d="M701 1121h70v18h-70z" transform="matrix(1.25714 0 0 1 -751.757 -1009)"/><path style="fill:#fff" d="M701 1121h70v18h-70z" transform="matrix(1.25714 0 0 1 -751.757 -974)"/></g></svg>